<svg width="1440" height="188" viewBox="0 0 1440 188" fill="none" xmlns="http://www.w3.org/2000/svg">
<path d="M170 86L706 123.5L1408 86L1436 143.5L706 156L240.5 123.5L170 86Z" fill="#FFF8F5"/>
<path fill-rule="evenodd" clip-rule="evenodd" d="M0 13.7756L60 8.95178C120 4.12798 240 -5.51961 360 4.12799C480 13.7756 600 42.7184 720 47.5422C840 52.366 960 33.0708 1080 23.4232C1200 13.7756 1320 13.7756 1380 13.7756H1440V187.432H1380C1320 187.432 1200 187.432 1080 187.432C960 187.432 840 187.432 720 187.432C600 187.432 480 187.432 360 187.432C240 187.432 120 187.432 60 187.432H0V13.7756Z" fill="#FFF8F5"/>
<path d="M170 86L706 123.5L1408 86L1436 143.5L706 156L240.5 123.5L170 86Z" stroke="#FFF8F5"/>
<path fill-rule="evenodd" clip-rule="evenodd" d="M0 13.7756L60 8.95178C120 4.12798 240 -5.51961 360 4.12799C480 13.7756 600 42.7184 720 47.5422C840 52.366 960 33.0708 1080 23.4232C1200 13.7756 1320 13.7756 1380 13.7756H1440V187.432H1380C1320 187.432 1200 187.432 1080 187.432C960 187.432 840 187.432 720 187.432C600 187.432 480 187.432 360 187.432C240 187.432 120 187.432 60 187.432H0V13.7756Z" stroke="#FFF8F5"/>
</svg>
